<svg width="293" height="365" viewBox="0 0 293 365" fill="none" xmlns="http://www.w3.org/2000/svg">
<g filter="url(#filter0_d_2_18)">
<rect x="53" width="177" height="205.553" rx="30" fill="#FBB500"/>
</g>
<rect x="107" y="48.0263" width="69" height="66.2763" fill="white"/>
<path d="M107 48.0263L107 114.303L75 48.0263L107 48.0263Z" fill="white"/>
<path d="M176 48.0263L176 114.303L208 48.0263L176 48.0263Z" fill="white"/>
<ellipse cx="87" cy="165.211" rx="12" ry="11.5263" fill="white"/>
<ellipse cx="196" cy="165.211" rx="12" ry="11.5263" fill="white"/>
<g filter="url(#filter1_d_2_18)">
<path d="M99 223.803H65.5L32 287.197H65.5L99 223.803Z" fill="#FBB400"/>
</g>
<g filter="url(#filter2_d_2_18)">
<path d="M184 223.803H217.5L251 287.197H217.5L184 223.803Z" fill="#FBB400"/>
</g>
<g filter="url(#filter3_d_2_18)">
<path d="M3.408 347V341.96H17.856C18.784 341.96 19.584 341.736 20.256 341.288C20.96 340.84 21.504 340.264 21.888 339.56C22.304 338.824 22.512 338.056 22.512 337.256C22.512 336.392 22.32 335.608 21.936 334.904C21.552 334.2 21.008 333.64 20.304 333.224C19.632 332.808 18.848 332.6 17.952 332.6H11.952C10.064 332.6 8.368 332.216 6.864 331.448C5.392 330.648 4.224 329.544 3.36 328.136C2.496 326.728 2.064 325.064 2.064 323.144C2.064 321.224 2.48 319.544 3.312 318.104C4.144 316.632 5.28 315.48 6.72 314.648C8.16 313.816 9.792 313.4 11.616 313.4H26.064V318.44H12.144C11.312 318.44 10.56 318.648 9.888 319.064C9.216 319.48 8.688 320.024 8.304 320.696C7.952 321.368 7.776 322.088 7.776 322.856C7.776 323.656 7.952 324.392 8.304 325.064C8.688 325.704 9.2 326.232 9.84 326.648C10.512 327.032 11.264 327.224 12.096 327.224H18.24C20.288 327.224 22.048 327.624 23.52 328.424C25.024 329.224 26.176 330.328 26.976 331.736C27.808 333.144 28.224 334.76 28.224 336.584C28.224 338.728 27.792 340.584 26.928 342.152C26.096 343.688 24.944 344.888 23.472 345.752C22.032 346.584 20.4 347 18.576 347H3.408ZM32.5898 347V341.96H38.8298V318.44H32.5898V313.4H50.8298V318.44H44.5898V341.96H50.8298V347H32.5898ZM79.4078 347.528C77.6158 347.528 75.9838 347.128 74.5118 346.328C73.0718 345.496 71.9358 344.36 71.1038 342.92C70.3038 341.448 69.9038 339.768 69.9038 337.88V321.8C69.9038 321.064 69.7278 320.408 69.3758 319.832C69.0238 319.224 68.5438 318.744 67.9358 318.392C67.3598 318.04 66.7198 317.864 66.0157 317.864C65.3118 317.864 64.6718 318.04 64.0958 318.392C63.5198 318.744 63.0558 319.224 62.7038 319.832C62.3518 320.408 62.1758 321.064 62.1758 321.8V347H56.4638V322.52C56.4638 320.696 56.8638 319.064 57.6638 317.624C58.4638 316.152 59.5838 314.984 61.0238 314.12C62.4638 313.256 64.1278 312.824 66.0157 312.824C67.9358 312.824 69.6158 313.256 71.0558 314.12C72.4958 314.984 73.6158 316.152 74.4158 317.624C75.2158 319.064 75.6158 320.696 75.6158 322.52V338.6C75.6158 339.304 75.7918 339.96 76.1438 340.568C76.4958 341.144 76.9598 341.608 77.5358 341.96C78.1118 342.312 78.7358 342.488 79.4078 342.488C80.1118 342.488 80.7517 342.312 81.3278 341.96C81.9038 341.608 82.3678 341.144 82.7198 340.568C83.0718 339.96 83.2478 339.304 83.2478 338.6V322.52C83.2478 320.696 83.6478 319.064 84.4478 317.624C85.2478 316.152 86.3678 314.984 87.8078 314.12C89.2798 313.256 90.9598 312.824 92.8478 312.824C94.7678 312.824 96.4318 313.256 97.8398 314.12C99.2798 314.984 100.4 316.152 101.2 317.624C102 319.064 102.4 320.696 102.4 322.52V347H96.6398V321.8C96.6398 321.064 96.4638 320.408 96.1118 319.832C95.7918 319.224 95.3438 318.744 94.7678 318.392C94.1918 318.04 93.5518 317.864 92.8478 317.864C92.1438 317.864 91.4878 318.04 90.8798 318.392C90.3038 318.744 89.8398 319.224 89.4878 319.832C89.1358 320.408 88.9598 321.064 88.9598 321.8V337.88C88.9598 339.768 88.5438 341.448 87.7118 342.92C86.8798 344.36 85.7438 345.496 84.3038 346.328C82.8958 347.128 81.2638 347.528 79.4078 347.528ZM109.02 347V313.4H114.732V327.944H122.316C123.532 327.944 124.636 327.72 125.628 327.272C126.652 326.792 127.452 326.104 128.028 325.208C128.636 324.312 128.94 323.24 128.94 321.992V313.4H134.652V321.944C134.652 324.152 134.108 326.088 133.02 327.752C131.932 329.416 130.492 330.712 128.7 331.64L132.924 340.856C133.084 341.24 133.292 341.512 133.548 341.672C133.804 341.832 134.14 341.912 134.556 341.912H137.388V347H133.692C132.188 347 130.94 346.68 129.948 346.04C128.988 345.4 128.252 344.52 127.74 343.4L122.94 332.936C122.588 332.968 122.252 333 121.932 333.032C121.612 333.032 121.26 333.032 120.876 333.032H114.732V347H109.02ZM151.173 347V337.496C148.965 337.112 147.045 336.328 145.413 335.144C143.813 333.928 142.581 332.376 141.717 330.488C140.853 328.6 140.421 326.456 140.421 324.056V313.4H146.133V324.44C146.133 325.944 146.453 327.32 147.093 328.568C147.733 329.816 148.645 330.824 149.829 331.592C151.013 332.328 152.421 332.696 154.053 332.696C155.717 332.696 157.141 332.328 158.325 331.592C159.509 330.824 160.405 329.816 161.013 328.568C161.653 327.32 161.973 325.944 161.973 324.44V313.4H167.733V324.056C167.733 326.456 167.285 328.6 166.389 330.488C165.525 332.376 164.277 333.928 162.645 335.144C161.045 336.36 159.125 337.144 156.885 337.496V347H151.173ZM187.175 347.576C184.647 347.576 182.407 347.048 180.455 345.992C178.503 344.936 176.967 343.432 175.847 341.48C174.727 339.496 174.167 337.144 174.167 334.424V313.4H179.879V334.808C179.879 336.216 180.167 337.512 180.743 338.696C181.351 339.848 182.199 340.776 183.287 341.48C184.407 342.184 185.719 342.536 187.223 342.536C188.695 342.536 189.975 342.184 191.063 341.48C192.183 340.776 193.031 339.848 193.607 338.696C194.183 337.512 194.471 336.216 194.471 334.808V313.4H200.231V334.808C200.231 336.216 200.519 337.512 201.095 338.696C201.703 339.848 202.551 340.776 203.639 341.48C204.727 342.184 206.023 342.536 207.527 342.536C209.031 342.536 210.327 342.184 211.415 341.48C212.503 340.776 213.335 339.848 213.911 338.696C214.519 337.512 214.823 336.216 214.823 334.808V313.4H220.535V334.424C220.535 337.144 219.975 339.496 218.855 341.48C217.735 343.432 216.199 344.936 214.247 345.992C212.295 347.048 210.055 347.576 207.527 347.576C206.119 347.576 204.759 347.384 203.447 347C202.167 346.616 201.015 346.024 199.991 345.224C198.967 344.424 198.087 343.464 197.351 342.344C196.647 343.464 195.767 344.424 194.711 345.224C193.655 345.992 192.487 346.584 191.207 347C189.959 347.384 188.615 347.576 187.175 347.576ZM223.689 347L234.873 316.856C235.417 315.48 236.201 314.472 237.225 313.832C238.249 313.16 239.417 312.824 240.729 312.824C242.073 312.824 243.257 313.144 244.281 313.784C245.337 314.424 246.121 315.432 246.633 316.808L257.865 347H251.577L248.985 339.56H232.377L229.689 347H223.689ZM234.105 334.472H247.257L241.881 318.776C241.753 318.456 241.593 318.216 241.401 318.056C241.241 317.896 241.033 317.816 240.777 317.816C240.521 317.816 240.313 317.912 240.153 318.104C239.993 318.264 239.865 318.488 239.769 318.776L234.105 334.472ZM267.658 347V337.496C265.45 337.112 263.53 336.328 261.898 335.144C260.298 333.928 259.066 332.376 258.202 330.488C257.338 328.6 256.906 326.456 256.906 324.056V313.4H262.618V324.44C262.618 325.944 262.938 327.32 263.578 328.568C264.218 329.816 265.13 330.824 266.314 331.592C267.498 332.328 268.906 332.696 270.538 332.696C272.202 332.696 273.626 332.328 274.81 331.592C275.994 330.824 276.89 329.816 277.498 328.568C278.138 327.32 278.458 325.944 278.458 324.44V313.4H284.218V324.056C284.218 326.456 283.77 328.6 282.874 330.488C282.01 332.376 280.762 333.928 279.13 335.144C277.53 336.36 275.61 337.144 273.37 337.496V347H267.658Z" fill="#FBB400"/>
</g>
<defs>
<filter id="filter0_d_2_18" x="49" y="0" width="185" height="213.553" filterUnits="userSpaceOnUse" color-interpolation-filters="sRGB">
<feFlood flood-opacity="0" result="BackgroundImageFix"/>
<feColorMatrix in="SourceAlpha" type="matrix" values="0 0 0 0 0 0 0 0 0 0 0 0 0 0 0 0 0 0 127 0" result="hardAlpha"/>
<feOffset dy="4"/>
<feGaussianBlur stdDeviation="2"/>
<feComposite in2="hardAlpha" operator="out"/>
<feColorMatrix type="matrix" values="0 0 0 0 0 0 0 0 0 0 0 0 0 0 0 0 0 0 0.25 0"/>
<feBlend mode="normal" in2="BackgroundImageFix" result="effect1_dropShadow_2_18"/>
<feBlend mode="normal" in="SourceGraphic" in2="effect1_dropShadow_2_18" result="shape"/>
</filter>
<filter id="filter1_d_2_18" x="28" y="223.803" width="75" height="71.3947" filterUnits="userSpaceOnUse" color-interpolation-filters="sRGB">
<feFlood flood-opacity="0" result="BackgroundImageFix"/>
<feColorMatrix in="SourceAlpha" type="matrix" values="0 0 0 0 0 0 0 0 0 0 0 0 0 0 0 0 0 0 127 0" result="hardAlpha"/>
<feOffset dy="4"/>
<feGaussianBlur stdDeviation="2"/>
<feComposite in2="hardAlpha" operator="out"/>
<feColorMatrix type="matrix" values="0 0 0 0 0 0 0 0 0 0 0 0 0 0 0 0 0 0 0.25 0"/>
<feBlend mode="normal" in2="BackgroundImageFix" result="effect1_dropShadow_2_18"/>
<feBlend mode="normal" in="SourceGraphic" in2="effect1_dropShadow_2_18" result="shape"/>
</filter>
<filter id="filter2_d_2_18" x="180" y="223.803" width="75" height="71.3947" filterUnits="userSpaceOnUse" color-interpolation-filters="sRGB">
<feFlood flood-opacity="0" result="BackgroundImageFix"/>
<feColorMatrix in="SourceAlpha" type="matrix" values="0 0 0 0 0 0 0 0 0 0 0 0 0 0 0 0 0 0 127 0" result="hardAlpha"/>
<feOffset dy="4"/>
<feGaussianBlur stdDeviation="2"/>
<feComposite in2="hardAlpha" operator="out"/>
<feColorMatrix type="matrix" values="0 0 0 0 0 0 0 0 0 0 0 0 0 0 0 0 0 0 0.25 0"/>
<feBlend mode="normal" in2="BackgroundImageFix" result="effect1_dropShadow_2_18"/>
<feBlend mode="normal" in="SourceGraphic" in2="effect1_dropShadow_2_18" result="shape"/>
</filter>
<filter id="filter3_d_2_18" x="2.064" y="312.824" width="290.154" height="42.752" filterUnits="userSpaceOnUse" color-interpolation-filters="sRGB">
<feFlood flood-opacity="0" result="BackgroundImageFix"/>
<feColorMatrix in="SourceAlpha" type="matrix" values="0 0 0 0 0 0 0 0 0 0 0 0 0 0 0 0 0 0 127 0" result="hardAlpha"/>
<feOffset dx="4" dy="4"/>
<feGaussianBlur stdDeviation="2"/>
<feComposite in2="hardAlpha" operator="out"/>
<feColorMatrix type="matrix" values="0 0 0 0 0 0 0 0 0 0 0 0 0 0 0 0 0 0 0.25 0"/>
<feBlend mode="normal" in2="BackgroundImageFix" result="effect1_dropShadow_2_18"/>
<feBlend mode="normal" in="SourceGraphic" in2="effect1_dropShadow_2_18" result="shape"/>
</filter>
</defs>
</svg>
